<mxfile host="app.diagrams.net" agent="Mozilla/5.0 (Macintosh; Intel Mac OS X 10_15_7) AppleWebKit/537.36 (KHTML, like Gecko) Chrome/134.0.0.0 Safari/537.36" version="26.2.13">
  <diagram name="Page-1" id="1A0a4yqwRPMZbgc_Vm_i">
    <mxGraphModel dx="1428" dy="800" grid="1" gridSize="10" guides="1" tooltips="1" connect="1" arrows="1" fold="1" page="1" pageScale="1" pageWidth="827" pageHeight="1169" math="0" shadow="0">
      <root>
        <mxCell id="0" />
        <mxCell id="1" parent="0" />
        <mxCell id="FJBlHJc9L1bTV9XCvPqU-1" value="" style="rounded=0;whiteSpace=wrap;html=1;fillColor=#dae8fc;strokeColor=#6c8ebf;" vertex="1" parent="1">
          <mxGeometry x="610" y="100" width="150" height="390" as="geometry" />
        </mxCell>
        <mxCell id="FJBlHJc9L1bTV9XCvPqU-2" value="" style="rounded=0;whiteSpace=wrap;html=1;fillColor=#dae8fc;strokeColor=#6c8ebf;" vertex="1" parent="1">
          <mxGeometry x="330" y="100" width="160" height="390" as="geometry" />
        </mxCell>
        <mxCell id="FJBlHJc9L1bTV9XCvPqU-3" value="Concordium Blockchain" style="image;aspect=fixed;perimeter=ellipsePerimeter;html=1;align=center;shadow=0;dashed=0;fontColor=light-dark(#000000, #6592cd);labelBackgroundColor=default;fontSize=12;spacingTop=3;image=img/lib/ibm/blockchain/blockchain.svg;" vertex="1" parent="1">
          <mxGeometry x="81.88" y="370" width="60" height="60" as="geometry" />
        </mxCell>
        <mxCell id="FJBlHJc9L1bTV9XCvPqU-4" value="GraphQL API" style="aspect=fixed;sketch=0;html=1;dashed=0;whitespace=wrap;verticalLabelPosition=bottom;verticalAlign=top;fillColor=#2875E2;strokeColor=#ffffff;points=[[0.005,0.63,0],[0.1,0.2,0],[0.9,0.2,0],[0.5,0,0],[0.995,0.63,0],[0.72,0.99,0],[0.5,1,0],[0.28,0.99,0]];shape=mxgraph.kubernetes.icon2;prIcon=api" vertex="1" parent="1">
          <mxGeometry x="390" y="238" width="50" height="48" as="geometry" />
        </mxCell>
        <mxCell id="FJBlHJc9L1bTV9XCvPqU-5" value="Store processed blockchain information" style="rounded=0;orthogonalLoop=1;jettySize=auto;html=1;exitX=0.995;exitY=0.63;exitDx=0;exitDy=0;exitPerimeter=0;entryX=0;entryY=0.5;entryDx=0;entryDy=0;fontSize=10;" edge="1" parent="1" source="FJBlHJc9L1bTV9XCvPqU-6" target="FJBlHJc9L1bTV9XCvPqU-8">
          <mxGeometry x="-0.2404" y="-24" relative="1" as="geometry">
            <mxPoint as="offset" />
          </mxGeometry>
        </mxCell>
        <mxCell id="FJBlHJc9L1bTV9XCvPqU-6" value="Indexer" style="aspect=fixed;sketch=0;html=1;dashed=0;whitespace=wrap;verticalLabelPosition=bottom;verticalAlign=top;fillColor=#2875E2;strokeColor=#ffffff;points=[[0.005,0.63,0],[0.1,0.2,0],[0.9,0.2,0],[0.5,0,0],[0.995,0.63,0],[0.72,0.99,0],[0.5,1,0],[0.28,0.99,0]];shape=mxgraph.kubernetes.icon2;prIcon=job" vertex="1" parent="1">
          <mxGeometry x="384" y="365.68" width="59" height="56.64" as="geometry" />
        </mxCell>
        <mxCell id="FJBlHJc9L1bTV9XCvPqU-7" value="Get information" style="rounded=0;orthogonalLoop=1;jettySize=auto;html=1;entryX=0.005;entryY=0.63;entryDx=0;entryDy=0;entryPerimeter=0;fontSize=10;" edge="1" parent="1" source="FJBlHJc9L1bTV9XCvPqU-3" target="FJBlHJc9L1bTV9XCvPqU-6">
          <mxGeometry x="-0.0173" y="-22" relative="1" as="geometry">
            <mxPoint as="offset" />
          </mxGeometry>
        </mxCell>
        <mxCell id="FJBlHJc9L1bTV9XCvPqU-8" value="CCDScan database" style="shape=rect;fillColor=#0F62FE;aspect=fixed;resizable=0;labelPosition=center;verticalLabelPosition=bottom;align=center;verticalAlign=top;strokeColor=none;fontSize=12;" vertex="1" parent="1">
          <mxGeometry x="667" y="376" width="48" height="48" as="geometry" />
        </mxCell>
        <mxCell id="FJBlHJc9L1bTV9XCvPqU-9" value="" style="fillColor=#ffffff;strokeColor=none;dashed=0;outlineConnect=0;html=1;labelPosition=center;verticalLabelPosition=bottom;verticalAlign=top;part=1;movable=0;resizable=0;rotatable=0;shape=mxgraph.ibm_cloud.database--postgresql" vertex="1" parent="FJBlHJc9L1bTV9XCvPqU-8">
          <mxGeometry width="24" height="24" relative="1" as="geometry">
            <mxPoint x="12" y="12" as="offset" />
          </mxGeometry>
        </mxCell>
        <mxCell id="FJBlHJc9L1bTV9XCvPqU-10" value="Node Collector backend" style="aspect=fixed;sketch=0;html=1;dashed=0;whitespace=wrap;verticalLabelPosition=bottom;verticalAlign=top;fillColor=#2875E2;strokeColor=#ffffff;points=[[0.005,0.63,0],[0.1,0.2,0],[0.9,0.2,0],[0.5,0,0],[0.995,0.63,0],[0.72,0.99,0],[0.5,1,0],[0.28,0.99,0]];shape=mxgraph.kubernetes.icon2;kubernetesLabel=1;prIcon=api" vertex="1" parent="1">
          <mxGeometry x="83.96" y="238" width="50" height="48" as="geometry" />
        </mxCell>
        <mxCell id="FJBlHJc9L1bTV9XCvPqU-11" value="Node information" style="edgeStyle=orthogonalEdgeStyle;rounded=0;orthogonalLoop=1;jettySize=auto;html=1;exitX=0.005;exitY=0.63;exitDx=0;exitDy=0;exitPerimeter=0;entryX=0.995;entryY=0.63;entryDx=0;entryDy=0;entryPerimeter=0;fontSize=10;" edge="1" parent="1" source="FJBlHJc9L1bTV9XCvPqU-4" target="FJBlHJc9L1bTV9XCvPqU-10">
          <mxGeometry x="-0.0625" y="22" relative="1" as="geometry">
            <mxPoint as="offset" />
          </mxGeometry>
        </mxCell>
        <mxCell id="FJBlHJc9L1bTV9XCvPqU-12" value="K8s" style="text;html=1;align=center;verticalAlign=middle;whiteSpace=wrap;rounded=0;" vertex="1" parent="1">
          <mxGeometry x="385" y="70" width="60" height="30" as="geometry" />
        </mxCell>
        <mxCell id="FJBlHJc9L1bTV9XCvPqU-13" value="RDS" style="text;html=1;align=center;verticalAlign=middle;whiteSpace=wrap;rounded=0;" vertex="1" parent="1">
          <mxGeometry x="655" y="70" width="60" height="30" as="geometry" />
        </mxCell>
        <mxCell id="FJBlHJc9L1bTV9XCvPqU-14" value="User" style="aspect=fixed;sketch=0;html=1;dashed=0;whitespace=wrap;verticalLabelPosition=bottom;verticalAlign=top;fillColor=#2875E2;strokeColor=#ffffff;points=[[0.005,0.63,0],[0.1,0.2,0],[0.9,0.2,0],[0.5,0,0],[0.995,0.63,0],[0.72,0.99,0],[0.5,1,0],[0.28,0.99,0]];shape=mxgraph.kubernetes.icon2;kubernetesLabel=1;prIcon=user" vertex="1" parent="1">
          <mxGeometry x="77.72" y="48.75" width="62.49" height="60" as="geometry" />
        </mxCell>
        <mxCell id="FJBlHJc9L1bTV9XCvPqU-17" value="Browser" style="sketch=0;aspect=fixed;pointerEvents=1;shadow=0;dashed=0;html=1;strokeColor=none;labelPosition=center;verticalLabelPosition=bottom;verticalAlign=top;align=center;fillColor=#00188D;shape=mxgraph.azure.computer" vertex="1" parent="1">
          <mxGeometry x="220" y="70" width="52.78" height="47.5" as="geometry" />
        </mxCell>
        <mxCell id="FJBlHJc9L1bTV9XCvPqU-18" style="rounded=0;orthogonalLoop=1;jettySize=auto;html=1;exitX=0.995;exitY=0.63;exitDx=0;exitDy=0;exitPerimeter=0;entryX=-0.02;entryY=0.356;entryDx=0;entryDy=0;entryPerimeter=0;" edge="1" parent="1" source="FJBlHJc9L1bTV9XCvPqU-14" target="FJBlHJc9L1bTV9XCvPqU-17">
          <mxGeometry relative="1" as="geometry" />
        </mxCell>
        <mxCell id="FJBlHJc9L1bTV9XCvPqU-19" value="Call backend" style="edgeStyle=orthogonalEdgeStyle;rounded=0;orthogonalLoop=1;jettySize=auto;html=1;entryX=-0.02;entryY=0.281;entryDx=0;entryDy=0;entryPerimeter=0;fontSize=10;" edge="1" parent="1" target="FJBlHJc9L1bTV9XCvPqU-4">
          <mxGeometry x="-0.5009" y="-40" relative="1" as="geometry">
            <mxPoint x="250" y="110" as="sourcePoint" />
            <Array as="points">
              <mxPoint x="250" y="252" />
            </Array>
            <mxPoint as="offset" />
          </mxGeometry>
        </mxCell>
        <mxCell id="FJBlHJc9L1bTV9XCvPqU-21" value="Read processed blockchain information" style="edgeStyle=orthogonalEdgeStyle;rounded=0;orthogonalLoop=1;jettySize=auto;html=1;exitX=0.5;exitY=0;exitDx=0;exitDy=0;entryX=0.995;entryY=0.63;entryDx=0;entryDy=0;entryPerimeter=0;fontSize=10;" edge="1" parent="1" source="FJBlHJc9L1bTV9XCvPqU-8" target="FJBlHJc9L1bTV9XCvPqU-4">
          <mxGeometry x="0.0707" y="22" relative="1" as="geometry">
            <mxPoint as="offset" />
          </mxGeometry>
        </mxCell>
        <mxCell id="FJBlHJc9L1bTV9XCvPqU-22" value="" style="edgeStyle=orthogonalEdgeStyle;rounded=0;orthogonalLoop=1;jettySize=auto;html=1;fontSize=10;" edge="1" parent="1" source="FJBlHJc9L1bTV9XCvPqU-17" target="FJBlHJc9L1bTV9XCvPqU-16">
          <mxGeometry x="-0.4776" y="16" relative="1" as="geometry">
            <mxPoint as="offset" />
            <mxPoint x="243" y="86" as="sourcePoint" />
            <mxPoint x="415" y="249" as="targetPoint" />
            <Array as="points">
              <mxPoint x="340" y="86" />
              <mxPoint x="340" y="160" />
            </Array>
          </mxGeometry>
        </mxCell>
        <mxCell id="FJBlHJc9L1bTV9XCvPqU-16" value="Frontend" style="dashed=0;outlineConnect=0;html=1;align=center;labelPosition=center;verticalLabelPosition=bottom;verticalAlign=top;shape=mxgraph.weblogos.html5" vertex="1" parent="1">
          <mxGeometry x="392.6" y="110" width="52.400000000000006" height="74" as="geometry" />
        </mxCell>
      </root>
    </mxGraphModel>
  </diagram>
</mxfile>
